<svg width="241" height="32" viewBox="0 0 241 32" fill="none" xmlns="http://www.w3.org/2000/svg">
<path d="M0 25.7117H1.10969L1.66453 22.9375H1.84948C2.21938 23.4923 2.66326 23.9732 3.2181 24.4171C4.14284 25.1568 5.51146 25.8966 7.39793 25.8966C11.6517 25.8966 14.9808 22.3826 14.9808 17.574C14.9808 12.7653 11.6517 9.25129 7.39793 9.25129C5.51146 9.25129 4.14284 9.99108 3.2181 10.7309C2.66326 11.1748 2.21938 11.6556 1.84948 12.2105H1.66453V2.4082H0V25.7117ZM7.39793 24.2321C4.25381 24.2321 1.47959 21.4209 1.47959 17.574C1.47959 13.727 4.25381 10.9158 7.39793 10.9158C10.5421 10.9158 13.3163 13.727 13.3163 17.574C13.3163 21.4209 10.5421 24.2321 7.39793 24.2321Z" fill="#003B1B"/>
<path d="M19.4066 25.7117H21.0711V9.43624H19.4066V25.7117ZM19.0367 4.25769C19.0367 4.99748 19.5915 5.55233 20.3313 5.55233C21.0711 5.55233 21.6259 4.99748 21.6259 4.25769C21.6259 3.51789 21.0711 2.96305 20.3313 2.96305C19.5915 2.96305 19.0367 3.51789 19.0367 4.25769Z" fill="#003B1B"/>
<path d="M25.494 17.574C25.494 22.3826 28.823 25.8966 33.0768 25.8966C37.3307 25.8966 40.6597 22.3826 40.6597 17.574C40.6597 12.7653 37.3307 9.25129 33.0768 9.25129C28.823 9.25129 25.494 12.7653 25.494 17.574ZM38.9952 17.574C38.9952 21.4209 36.221 24.2321 33.0768 24.2321C29.9327 24.2321 27.1585 21.4209 27.1585 17.574C27.1585 13.727 29.9327 10.9158 33.0768 10.9158C36.221 10.9158 38.9952 13.727 38.9952 17.574Z" fill="#003B1B"/>
<path d="M43.8125 24.602C43.8125 25.3418 44.3674 25.8966 45.1072 25.8966C45.8469 25.8966 46.4018 25.3418 46.4018 24.602C46.4018 23.8622 45.8469 23.3074 45.1072 23.3074C44.3674 23.3074 43.8125 23.8622 43.8125 24.602ZM43.8125 10.5459C43.8125 11.2857 44.3674 11.8406 45.1072 11.8406C45.8469 11.8406 46.4018 11.2857 46.4018 10.5459C46.4018 9.80614 45.8469 9.25129 45.1072 9.25129C44.3674 9.25129 43.8125 9.80614 43.8125 10.5459Z" fill="#003B1B"/>
<path d="M62.2943 20.1632C61.5546 22.3826 59.7421 24.2321 57.1158 24.2321C53.9717 24.2321 51.1974 21.4209 51.1974 17.574C51.1974 13.727 53.9717 10.9158 57.1158 10.9158C59.7421 10.9158 61.5546 12.7653 62.2943 14.9847H64.1438C63.2191 11.6186 60.8148 9.25129 57.1158 9.25129C52.862 9.25129 49.5329 12.7653 49.5329 17.574C49.5329 22.3826 52.862 25.8966 57.1158 25.8966C60.8148 25.8966 63.2191 23.5293 64.1438 20.1632H62.2943Z" fill="#003B1B"/>
<path d="M68.3875 19.0536C68.3875 23.0854 71.1617 25.8966 74.8607 25.8966C76.7472 25.8966 77.9678 25.3048 78.8186 24.602C79.2995 24.2321 79.7064 23.7882 80.0393 23.3074H80.2242L80.7791 25.7117H81.8887V9.43624H80.2242V19.0536C80.2242 22.0127 78.0048 24.2321 75.0457 24.2321C72.2714 24.2321 70.0521 22.0127 70.0521 19.0536V9.43624H68.3875V19.0536Z" fill="#003B1B"/>
<path d="M87.4329 25.7117H89.0974V2.4082H87.4329V25.7117Z" fill="#003B1B"/>
<path d="M105.912 21.6428C105.098 22.7525 103.729 24.2321 101.288 24.2321C97.922 24.2321 95.5917 21.8648 95.1848 18.3138H108.316L108.39 17.9439C108.427 17.6849 108.501 17.426 108.501 17.0191C108.501 12.5804 105.135 9.25129 101.103 9.25129C96.8493 9.25129 93.5203 12.7653 93.5203 17.574C93.5203 22.3826 96.8493 25.8966 101.288 25.8966C104.802 25.8966 107.058 23.7143 107.946 21.6428H105.912ZM95.1848 16.6492C95.7766 13.2832 98.144 10.9158 101.103 10.9158C104.062 10.9158 106.43 13.2832 106.837 16.6492H95.1848Z" fill="#003B1B"/>
<line x1="124.057" y1="2" x2="124.057" y2="26.6598" stroke="#003B1B"/>
<path d="M140.58 25.7117H144.279L145.019 24.0472C145.389 24.3801 145.833 24.713 146.313 24.9719C147.164 25.4528 148.348 25.8966 149.827 25.8966C154.081 25.8966 157.78 22.2347 157.78 17.2041C157.78 12.1735 154.081 8.5115 149.827 8.5115C148.533 8.5115 147.46 8.84441 146.72 9.25129C146.276 9.47323 145.907 9.73216 145.574 9.99109V2.4082H140.58V25.7117ZM149.088 21.2729C147.016 21.2729 145.389 19.6084 145.389 17.2041C145.389 14.7997 147.016 13.1352 149.088 13.1352C151.159 13.1352 152.787 14.7997 152.787 17.2041C152.787 19.6084 151.159 21.2729 149.088 21.2729Z" fill="#003B1B"/>
<path d="M160.367 11.2857C160.367 12.7653 161.661 14.0599 163.141 14.0599C164.62 14.0599 165.915 12.7653 165.915 11.2857C165.915 9.80614 164.62 8.5115 163.141 8.5115C161.661 8.5115 160.367 9.80614 160.367 11.2857ZM160.367 23.1224C160.367 24.602 161.661 25.8966 163.141 25.8966C164.62 25.8966 165.915 24.602 165.915 23.1224C165.915 21.6428 164.62 20.3482 163.141 20.3482C161.661 20.3482 160.367 21.6428 160.367 23.1224Z" fill="#003B1B"/>
<path d="M169.243 25.7117H174.236V2.4082H169.243V25.7117Z" fill="#003B1B"/>
<path d="M177.578 17.2041C177.578 22.1977 181.462 26.0816 186.271 26.0816C191.08 26.0816 194.964 22.1977 194.964 17.2041C194.964 12.2105 191.08 8.32655 186.271 8.32655C181.462 8.32655 177.578 12.2105 177.578 17.2041ZM189.97 17.2041C189.97 19.8303 188.342 21.4579 186.271 21.4579C184.2 21.4579 182.572 19.8303 182.572 17.2041C182.572 14.5778 184.2 12.9503 186.271 12.9503C188.342 12.9503 189.97 14.5778 189.97 17.2041Z" fill="#003B1B"/>
<path d="M198.118 26.2665C198.488 27.3392 199.043 28.301 199.745 29.1517C200.929 30.5943 202.926 31.9999 206.071 31.9999C211.212 31.9999 214.578 28.6709 214.578 24.2321V8.69645H210.879L210.139 10.361C209.733 10.0281 209.326 9.69517 208.845 9.43624C207.994 8.99236 206.81 8.5115 205.331 8.5115C201.04 8.5115 197.563 12.0625 197.563 16.6492C197.563 21.2359 201.04 24.787 205.331 24.787C206.81 24.787 207.846 24.454 208.549 24.0472C208.956 23.8252 209.326 23.5663 209.585 23.3074V24.2321C209.585 26.1186 208.142 27.5612 206.071 27.5612C204.924 27.5612 204.184 27.1543 203.74 26.7474C203.481 26.4885 203.259 26.2295 203.111 25.8966L198.118 26.2665ZM202.557 16.6492C202.557 14.5778 203.999 13.1352 206.071 13.1352C208.142 13.1352 209.585 14.5778 209.585 16.6492C209.585 18.7206 208.142 20.1632 206.071 20.1632C203.999 20.1632 202.557 18.7206 202.557 16.6492Z" fill="#003B1B"/>
<path d="M217.909 20.5331C218.464 23.8992 220.683 26.0816 225.307 26.0816C229.597 26.0816 232.15 23.4923 232.15 20.7181C232.15 14.6148 223.457 15.5395 223.457 13.6901C223.457 12.9503 223.975 12.3954 225.122 12.3954C226.268 12.3954 226.971 13.1352 227.156 13.875L231.965 13.5051C231.41 10.5459 229.191 8.32655 224.752 8.32655C220.72 8.32655 218.279 10.7309 218.279 13.5051C218.279 19.6084 226.971 18.7206 226.971 20.5331C226.971 21.2729 226.231 22.0127 224.937 22.0127C223.642 22.0127 222.902 21.3099 222.717 20.1632L217.909 20.5331Z" fill="#003B1B"/>
</svg>
