<svg width="144" height="20" viewBox="0 0 144 20" fill="none" xmlns="http://www.w3.org/2000/svg">
<path d="M1.58032 15.4306H2.25769L2.59637 13.7592H2.70927C2.93506 14.0935 3.20601 14.3832 3.54469 14.6506C4.10916 15.0963 4.94459 15.5421 6.09611 15.5421C8.69269 15.5421 10.7248 13.4249 10.7248 10.5278C10.7248 7.63063 8.69269 5.51348 6.09611 5.51348C4.94459 5.51348 4.10916 5.9592 3.54469 6.40491C3.20601 6.67234 2.93506 6.96205 2.70927 7.29634H2.59637V1.39062H1.58032V15.4306ZM6.09611 14.5392C4.1769 14.5392 2.48348 12.8455 2.48348 10.5278C2.48348 8.21005 4.1769 6.51634 6.09611 6.51634C8.01532 6.51634 9.70874 8.21005 9.70874 10.5278C9.70874 12.8455 8.01532 14.5392 6.09611 14.5392Z" fill="#003B1B"/>
<path d="M13.4263 15.4306H14.4424V5.62491H13.4263V15.4306ZM13.2005 2.50491C13.2005 2.95063 13.5392 3.28491 13.9908 3.28491C14.4424 3.28491 14.7811 2.95063 14.7811 2.50491C14.7811 2.0592 14.4424 1.72491 13.9908 1.72491C13.5392 1.72491 13.2005 2.0592 13.2005 2.50491Z" fill="#003B1B"/>
<path d="M17.1422 10.5278C17.1422 13.4249 19.1743 15.5421 21.7708 15.5421C24.3674 15.5421 26.3995 13.4249 26.3995 10.5278C26.3995 7.63063 24.3674 5.51348 21.7708 5.51348C19.1743 5.51348 17.1422 7.63063 17.1422 10.5278ZM25.3835 10.5278C25.3835 12.8455 23.6901 14.5392 21.7708 14.5392C19.8516 14.5392 18.1582 12.8455 18.1582 10.5278C18.1582 8.21005 19.8516 6.51634 21.7708 6.51634C23.6901 6.51634 25.3835 8.21005 25.3835 10.5278Z" fill="#003B1B"/>
<path d="M28.324 14.7621C28.324 15.2078 28.6627 15.5421 29.1143 15.5421C29.5659 15.5421 29.9046 15.2078 29.9046 14.7621C29.9046 14.3163 29.5659 13.9821 29.1143 13.9821C28.6627 13.9821 28.324 14.3163 28.324 14.7621ZM28.324 6.29348C28.324 6.7392 28.6627 7.07348 29.1143 7.07348C29.5659 7.07348 29.9046 6.7392 29.9046 6.29348C29.9046 5.84777 29.5659 5.51348 29.1143 5.51348C28.6627 5.51348 28.324 5.84777 28.324 6.29348Z" fill="#003B1B"/>
<path d="M39.6056 12.0878C39.154 13.4249 38.0476 14.5392 36.4445 14.5392C34.5253 14.5392 32.8319 12.8455 32.8319 10.5278C32.8319 8.21005 34.5253 6.51634 36.4445 6.51634C38.0476 6.51634 39.154 7.63063 39.6056 8.96777H40.7345C40.17 6.93977 38.7024 5.51348 36.4445 5.51348C33.8479 5.51348 31.8158 7.63063 31.8158 10.5278C31.8158 13.4249 33.8479 15.5421 36.4445 15.5421C38.7024 15.5421 40.17 14.1158 40.7345 12.0878H39.6056Z" fill="#003B1B"/>
<path d="M43.3249 11.4192C43.3249 13.8483 45.0183 15.5421 47.2762 15.5421C48.4278 15.5421 49.1729 15.1855 49.6922 14.7621C49.9857 14.5392 50.2341 14.2718 50.4373 13.9821H50.5502L50.8889 15.4306H51.5662V5.62491H50.5502V11.4192C50.5502 13.2021 49.1954 14.5392 47.3891 14.5392C45.6957 14.5392 44.341 13.2021 44.341 11.4192V5.62491H43.3249V11.4192Z" fill="#003B1B"/>
<path d="M54.9504 15.4306H55.9665V1.39062H54.9504V15.4306Z" fill="#003B1B"/>
<path d="M66.2302 12.9792C65.7335 13.6478 64.898 14.5392 63.4078 14.5392C61.3531 14.5392 59.9307 13.1129 59.6823 10.9735H67.6978L67.743 10.7506C67.7656 10.5946 67.8107 10.4386 67.8107 10.1935C67.8107 7.5192 65.756 5.51348 63.2949 5.51348C60.6984 5.51348 58.6663 7.63063 58.6663 10.5278C58.6663 13.4249 60.6984 15.5421 63.4078 15.5421C65.5528 15.5421 66.9301 14.2272 67.472 12.9792H66.2302ZM59.6823 9.97063C60.0436 7.94263 61.4886 6.51634 63.2949 6.51634C65.1013 6.51634 66.5463 7.94263 66.7947 9.97063H59.6823Z" fill="#003B1B"/>
<line x1="77.5" y1="1.14453" x2="77.5" y2="16.0017" stroke="#003B1B"/>
<path d="M87.3923 15.4306H89.6502L90.1018 14.4278C90.3276 14.6283 90.5985 14.8289 90.8921 14.9849C91.4114 15.2746 92.1339 15.5421 93.0371 15.5421C95.6336 15.5421 97.8915 13.3358 97.8915 10.3049C97.8915 7.27405 95.6336 5.06777 93.0371 5.06777C92.2468 5.06777 91.592 5.26834 91.1404 5.51348C90.8695 5.6472 90.6437 5.8032 90.4405 5.9592V1.39062H87.3923V15.4306ZM92.5855 12.7563C91.3211 12.7563 90.3276 11.7535 90.3276 10.3049C90.3276 8.85634 91.3211 7.85348 92.5855 7.85348C93.8499 7.85348 94.8434 8.85634 94.8434 10.3049C94.8434 11.7535 93.8499 12.7563 92.5855 12.7563Z" fill="#003B1B"/>
<path d="M99.4703 6.7392C99.4703 7.63063 100.261 8.41063 101.164 8.41063C102.067 8.41063 102.857 7.63063 102.857 6.7392C102.857 5.84777 102.067 5.06777 101.164 5.06777C100.261 5.06777 99.4703 5.84777 99.4703 6.7392ZM99.4703 13.8706C99.4703 14.7621 100.261 15.5421 101.164 15.5421C102.067 15.5421 102.857 14.7621 102.857 13.8706C102.857 12.9792 102.067 12.1992 101.164 12.1992C100.261 12.1992 99.4703 12.9792 99.4703 13.8706Z" fill="#003B1B"/>
<path d="M104.888 15.4306H107.937V1.39062H104.888V15.4306Z" fill="#003B1B"/>
<path d="M109.977 10.3049C109.977 13.3135 112.347 15.6535 115.283 15.6535C118.218 15.6535 120.589 13.3135 120.589 10.3049C120.589 7.29634 118.218 4.95634 115.283 4.95634C112.347 4.95634 109.977 7.29634 109.977 10.3049ZM117.541 10.3049C117.541 11.8872 116.547 12.8678 115.283 12.8678C114.018 12.8678 113.025 11.8872 113.025 10.3049C113.025 8.72263 114.018 7.74205 115.283 7.74205C116.547 7.74205 117.541 8.72263 117.541 10.3049Z" fill="#003B1B"/>
<path d="M122.514 15.7649C122.74 16.4112 123.079 16.9906 123.508 17.5032C124.23 18.3723 125.449 19.2192 127.369 19.2192C130.507 19.2192 132.562 17.2135 132.562 14.5392V5.1792H130.304L129.852 6.18205C129.604 5.98148 129.355 5.78091 129.062 5.62491C128.543 5.35748 127.82 5.06777 126.917 5.06777C124.298 5.06777 122.175 7.2072 122.175 9.97063C122.175 12.7341 124.298 14.8735 126.917 14.8735C127.82 14.8735 128.452 14.6729 128.881 14.4278C129.13 14.2941 129.355 14.1381 129.514 13.9821V14.5392C129.514 15.6758 128.633 16.5449 127.369 16.5449C126.669 16.5449 126.217 16.2998 125.946 16.0546C125.788 15.8986 125.653 15.7426 125.562 15.5421L122.514 15.7649ZM125.224 9.97063C125.224 8.72263 126.104 7.85348 127.369 7.85348C128.633 7.85348 129.514 8.72263 129.514 9.97063C129.514 11.2186 128.633 12.0878 127.369 12.0878C126.104 12.0878 125.224 11.2186 125.224 9.97063Z" fill="#003B1B"/>
<path d="M134.595 12.3106C134.933 14.3386 136.288 15.6535 139.11 15.6535C141.73 15.6535 143.288 14.0935 143.288 12.4221C143.288 8.74491 137.982 9.30205 137.982 8.18777C137.982 7.74205 138.298 7.40777 138.998 7.40777C139.698 7.40777 140.127 7.85348 140.239 8.2992L143.175 8.07634C142.836 6.29348 141.481 4.95634 138.772 4.95634C136.311 4.95634 134.82 6.40491 134.82 8.07634C134.82 11.7535 140.127 11.2186 140.127 12.3106C140.127 12.7563 139.675 13.2021 138.885 13.2021C138.094 13.2021 137.643 12.7786 137.53 12.0878L134.595 12.3106Z" fill="#003B1B"/>
</svg>
